<svg width="44" height="54" viewBox="0 0 44 54" fill="none" xmlns="http://www.w3.org/2000/svg">
    <path d="M42.4607 26.0969L42.4607 26.097L42.4703 26.0972L43.5 26.1138L43.5 28.459L43.5 53.5L0.5 53.5L0.5 52.1616C20.1841 50.9463 36.3831 41.4563 41.3813 28.7082L41.6572 28.0044L40.9016 28.0259L40.8382 28.0277C39.7213 28.0595 39.2722 28.0723 35.8613 28.0275L35.8612 28.0275C18.5304 27.8035 5.4796 16.6013 0.669829 0.500004L25.9541 0.500002C25.9472 0.783296 25.9383 1.15705 25.9295 1.55046C25.911 2.37159 25.8922 3.28855 25.8922 3.63994C25.8922 9.7051 27.7112 15.2217 30.6858 19.273C33.6602 23.3239 37.812 25.9331 42.4607 26.0969Z"
          stroke="black"/>
</svg>
