<svg width="44" height="54" viewBox="0 0 44 54" fill="none" xmlns="http://www.w3.org/2000/svg">
    <path d="M1.53927 27.9031L1.53927 27.903L1.52974 27.9028L0.5 27.8862L0.5 25.541L0.5 0.5L43.5 0.5V1.8384C23.8159 3.0537 7.61685 12.5437 2.6187 25.2918L2.34276 25.9956L3.0984 25.9741L3.16182 25.9723C4.27867 25.9405 4.72782 25.9277 8.13869 25.9725L8.1388 25.9725C25.4696 26.1965 38.5204 37.3987 43.3302 53.5L18.0459 53.5C18.0528 53.2167 18.0616 52.843 18.0705 52.4495C18.089 51.6284 18.1078 50.7115 18.1078 50.3601C18.1078 44.2949 16.2888 38.7783 13.3142 34.727C10.3398 30.6761 6.18796 28.0669 1.53927 27.9031Z"
          fill="#E0E0E0" stroke="#E5E5E5"/>
</svg>
