<svg xmlns="http://www.w3.org/2000/svg" viewBox="0 0 592.94 370.85">
    <defs>
        <style>
            .cls-1 {
            fill: #333;
            }

            .cls-2 {
            fill: #c1272d;
            }
        </style>
    </defs>
    <g id="Layer_2" data-name="Layer 2">
        <g id="Warstwa_1" data-name="Warstwa 1">
            <path class="cls-1"
                  d="M0,370.46H286.05V234.88c-24.32,30.67-70.43,51.39-123.35,51.39-78.23,0-141.64-45.24-141.64-101s63.41-101,141.64-101c52.92,0,99,20.71,123.35,51.38V0H.05Z"/>
            <path class="cls-1"
                  d="M592.94,16.71V.39H307.14V195.3l9.88.17c58,2.15,104.49,68.65,104.49,150.43,0,4.72-.49,25-.49,25H592.91C562.34,256.92,475.7,177,360,175.41c-22.59-.31-25.25-.22-32.88,0C359.25,89.11,464.37,24.14,592.94,16.71Z"/>
            <circle class="cls-2" cx="535.98" cy="323.47" r="13.74"/>
        </g>
    </g>
</svg>
