<svg width="63" height="63" viewBox="0 0 63 63" fill="none" xmlns="http://www.w3.org/2000/svg">
    <path d="M29.5708 41.8535L22.9162 61.9168L27.7119 41.304L17.4957 59.8131L26.0092 40.4406L12.5438 56.7047L24.4627 39.2788L8.21671 52.8114L23.1505 37.8031L4.71758 48.1488L22.1351 36.1704L2.17134 42.9367L21.4478 34.3808L0.546739 37.3322L21.1354 32.5126L0 31.5078L21.1354 30.5816L0.546739 25.6678L21.4478 28.6192L2.17134 20.0633L22.1351 26.8296L4.71758 14.8512L23.1349 25.1969L8.20109 10.1886L24.4471 23.7212L12.5438 6.2168L26.0092 22.5437L17.4957 3.18689L27.7119 21.696L22.9162 1.08323L29.5708 21.1465L28.6335 0L31.4922 21.0052L34.3665 0L33.4292 21.1622L40.0838 1.09893L35.2881 21.7117L45.5043 3.20259L36.9908 22.5751L50.4562 6.29529L38.5373 23.7212L54.7989 10.1886L39.8651 25.1969L58.2824 14.8512L40.8649 26.8296L60.8287 20.0633L41.5522 28.6192L62.4533 25.6678L41.8646 30.5659L63 31.4921L41.8646 32.5126L62.4533 37.3322L41.5678 34.3808L60.8443 42.9367L40.8805 36.1704L58.298 48.1488L39.8807 37.8031L54.8145 52.8114L38.5529 39.2788L50.4719 56.7832L37.0064 40.4563L45.52 59.8288L35.3037 41.3197L40.0994 61.9325L33.4292 41.8535L34.3665 63L31.5078 42.0733L28.6491 63L29.5708 41.8535Z"
          fill="#333333"/>
</svg>
